HIERARCHY
ROOT Hips
{
	OFFSET 0.00000 0.00000 0.00000
	CHANNELS 6 Xposition Yposition Zposition Zrotation Yrotation Xrotation 
	JOINT LHipJoint
	{
		OFFSET 0 0 0
		CHANNELS 3 Zrotation Yrotation Xrotation
		JOINT LeftUpLeg
		{
			OFFSET 1.34019 -1.87553 0.90315
			CHANNELS 3 Zrotation Yrotation Xrotation
			JOINT LeftLeg
			{
				OFFSET 2.55316 -7.01474 0.00000
				CHANNELS 3 Zrotation Yrotation Xrotation
				JOINT LeftFoot
				{
					OFFSET 2.64657 -7.27139 0.00000
					CHANNELS 3 Zrotation Yrotation Xrotation
					JOINT LeftToeBase
					{
						OFFSET 0.24207 -0.66507 2.14489
						CHANNELS 3 Zrotation Yrotation Xrotation
						End Site
						{
							OFFSET 0.00000 -0.00000 1.12451
						}
					}
				}
			}
		}
	}
	JOINT RHipJoint
	{
		OFFSET 0 0 0
		CHANNELS 3 Zrotation Yrotation Xrotation
		JOINT RightUpLeg
		{
			OFFSET -1.28320 -1.87553 0.90315
			CHANNELS 3 Zrotation Yrotation Xrotation
			JOINT RightLeg
			{
				OFFSET -2.60484 -7.15674 0.00000
				CHANNELS 3 Zrotation Yrotation Xrotation
				JOINT RightFoot
				{
					OFFSET -2.60296 -7.15159 0.00000
					CHANNELS 3 Zrotation Yrotation Xrotation
					JOINT RightToeBase
					{
						OFFSET -0.31082 -0.85398 2.28998
						CHANNELS 3 Zrotation Yrotation Xrotation
						End Site
						{
							OFFSET -0.00000 -0.00000 1.21611
						}
					}
				}
			}
		}
	}
	JOINT LowerBack
	{
		OFFSET 0 0 0
		CHANNELS 3 Zrotation Yrotation Xrotation
		JOINT Spine
		{
			OFFSET -0.00160 2.05581 -0.15156
			CHANNELS 3 Zrotation Yrotation Xrotation
			JOINT Spine1
			{
				OFFSET 0.04594 2.06326 -0.01617
				CHANNELS 3 Zrotation Yrotation Xrotation
				JOINT Neck
				{
					OFFSET 0 0 0
					CHANNELS 3 Zrotation Yrotation Xrotation
					JOINT Neck1
					{
						OFFSET 0.03753 1.73883 0.26751
						CHANNELS 3 Zrotation Yrotation Xrotation
						JOINT Head
						{
							OFFSET -0.09795 1.76129 -0.31794
							CHANNELS 3 Zrotation Yrotation Xrotation
							End Site
							{
								OFFSET -0.03611 1.79987 -0.13846
							}
						}
					}
				}
				JOINT LeftShoulder
				{
					OFFSET 0 0 0
					CHANNELS 3 Zrotation Yrotation Xrotation
					JOINT LeftArm
					{
						OFFSET 3.30667 1.29205 -0.22445
						CHANNELS 3 Zrotation Yrotation Xrotation
						JOINT LeftForeArm
						{
							OFFSET 4.92785 -0.00000 -0.00000
							CHANNELS 3 Zrotation Yrotation Xrotation
							JOINT LeftHand
							{
								OFFSET 3.44052 -0.00000 0.00000
								CHANNELS 3 Zrotation Yrotation Xrotation
								JOINT LeftFingerBase
								{
									OFFSET 0 0 0
									CHANNELS 3 Zrotation Yrotation Xrotation
									JOINT LeftHandIndex1
									{
										OFFSET 0.65433 -0.00000 0.00000
										CHANNELS 3 Zrotation Yrotation Xrotation
										End Site
										{
											OFFSET 0.52753 -0.00000 0.00000
										}
									}
								}
								JOINT LThumb
								{
									OFFSET 0 0 0
									CHANNELS 3 Zrotation Yrotation Xrotation
									End Site
									{
										OFFSET 0.53559 -0.00000 0.53559
									}
								}
							}
						}
					}
				}
				JOINT RightShoulder
				{
					OFFSET 0 0 0
					CHANNELS 3 Zrotation Yrotation Xrotation
					JOINT RightArm
					{
						OFFSET -3.20032 1.49783 -0.27688
						CHANNELS 3 Zrotation Yrotation Xrotation
						JOINT RightForeArm
						{
							OFFSET -5.09181 -0.00000 -0.00000
							CHANNELS 3 Zrotation Yrotation Xrotation
							JOINT RightHand
							{
								OFFSET -3.49865 -0.00000 -0.00000
								CHANNELS 3 Zrotation Yrotation Xrotation
								JOINT RightFingerBase
								{
									OFFSET 0 0 0
									CHANNELS 3 Zrotation Yrotation Xrotation
									JOINT RightHandIndex1
									{
										OFFSET -0.66641 -0.00000 0.00000
										CHANNELS 3 Zrotation Yrotation Xrotation
										End Site
										{
											OFFSET -0.53728 -0.00000 0.00000
										}
									}
								}
								JOINT RThumb
								{
									OFFSET 0 0 0
									CHANNELS 3 Zrotation Yrotation Xrotation
									End Site
									{
										OFFSET -0.54548 -0.00000 0.54548
									}
								}
							}
						}
					}
				}
			}
		}
	}
}
MOTION
Frames: 6
Frame Time: .0083333
-0.2614 17.932 -30.1766 0 0 0 0 0 0 -21 0 0 0 0 0 0 0 0 0 0 0 0 0 0 21 0 0 0 0 0 0 0 0 0 0 0 0 0 0 0 0 0 0 0 0 0 0 -16 0 0 21 0 0 11 0 0 0 -8 0 0 0 0 0 0 0 0 0 0 0 0 0 0 0 0 0 0 0 0 8 0 0 0 0 0 0 0 0 0 0 0 0 0 0 0 0 0
-0.2614 17.9320 -30.1766 -1.7548 12.6962 2.6576 0.0000 0.0000 0.0000 -14.1575 -6.4573 -6.5389 1.7589 8.3447 23.7661 0.3390 5.8231 -14.6742 0.3092 -3.5751 -9.8844 0.0000 0.0000 0.0000 17.0649 0.0530 -4.7426 -1.8365 -8.5168 24.2953 1.0497 -21.7010 -21.5294 -0.0473 1.4030 -3.8583 -1.3666 -1.9948 2.3174 6.0846 -2.6576 0.9140 7.1552 -1.3533 -0.0020 2.0683 1.5281 -22.1548 -11.7569 5.2096 26.9143 -4.0325 0.9081 13.1767 0.0000 0.0000 0.0000 -53.8380 3.4128 -19.1403 12.0372 -19.8605 -2.1149 -0.0000 -0.0000 3.0255 11.4761 2.1208 0.4305 -7.1250 0.0000 -0.0000 -12.1058 31.9867 3.9319 0.0000 0.0000 0.0000 33.1152 -0.0727 -25.7744 -11.9482 19.7270 -2.0848 0.0000 0.0000 2.9746 -20.7198 -2.0769 0.7854 7.1250 -0.0000 -0.0000 4.7250 -32.1769 1.4874
-0.2621 17.9325 -30.1747 -1.7035 12.5964 2.6777 0.0000 0.0000 0.0000 -14.2245 -6.4629 -6.4811 1.7497 8.3240 23.7027 0.3300 5.9362 -14.6469 0.3166 -3.6171 -10.0019 0.0000 0.0000 0.0000 17.0053 0.1227 -4.7556 -1.8418 -8.5284 24.3309 1.0395 -21.6766 -21.5955 -0.0481 1.4158 -3.8937 -1.8979 -1.7269 2.3343 6.2765 -2.3009 0.6999 7.6703 -1.1657 -0.2505 2.2483 1.1956 -21.7836 -12.0245 4.7745 27.2093 -4.2594 0.7053 13.1927 0.0000 -0.0000 0.0000 -53.1777 2.9502 -19.9734 11.8957 -19.6481 -2.0671 -0.0000 -0.0000 3.2141 11.4646 1.8143 0.3679 -7.1250 0.0000 -0.0000 -12.0725 31.6806 4.0116 0.0000 -0.0000 0.0000 32.1761 -1.2943 -26.0851 -12.1016 19.9568 -2.1368 0.0000 0.0000 2.8166 -20.9730 -2.0947 0.8027 7.1250 -0.0000 -0.0000 4.5227 -32.2015 1.4207
-0.2574 17.9309 -30.1686 -1.5140 12.5725 2.6927 0.0000 0.0000 0.0000 -14.4682 -6.4647 -6.3679 1.7424 8.3076 23.6525 0.3258 6.0097 -14.6532 0.3102 -3.5808 -9.9001 0.0000 0.0000 0.0000 16.7362 -0.1110 -4.8004 -1.8473 -8.5404 24.3679 1.0096 -21.4468 -21.4419 -0.0506 1.4523 -3.9943 -1.4330 -2.1224 2.2301 5.9716 -2.8373 1.0224 7.0682 -1.4501 0.1806 1.8860 1.5081 -22.6974 -11.4937 5.2244 27.3740 -3.9201 0.8993 13.4684 -0.0000 0.0000 0.0000 -52.3070 3.5491 -20.9355 12.2066 -20.1137 -2.1728 -0.0000 -0.0000 2.0006 12.3326 2.4725 0.5404 -7.1250 0.0000 -0.0000 -11.4753 32.3640 3.6131 -0.0000 0.0000 0.0000 31.7019 0.1122 -27.0081 -11.9970 19.8002 -2.1013 0.0000 0.0000 3.3830 -21.0658 -1.6490 0.6351 7.1250 -0.0000 -0.0000 4.4205 -31.7276 1.4390
-0.2599 17.9313 -30.1679 -1.5419 12.4679 2.7019 0.0000 0.0000 0.0000 -14.4240 -6.3766 -6.3725 1.7362 8.2936 23.6095 0.3252 6.0196 -14.6535 0.3119 -3.5902 -9.9264 0.0000 0.0000 0.0000 16.7767 -0.0128 -4.8143 -1.8520 -8.5508 24.4000 1.0031 -21.4289 -21.4793 -0.0506 1.4523 -3.9942 -1.4704 -2.0966 2.2536 5.9992 -2.8023 1.0026 7.1205 -1.4317 0.1455 1.9208 1.4737 -22.6903 -11.4681 5.1773 27.5930 -3.9351 0.8801 13.5539 0.0000 -0.0000 0.0000 -51.6852 3.6643 -21.1141 12.3767 -20.3672 -2.2317 -0.0000 -0.0000 1.4041 12.7658 2.2696 0.5141 -7.1250 0.0000 -0.0000 -11.1039 32.1730 3.5443 0.0000 -0.0000 0.0000 31.1148 -0.0958 -27.1163 -12.1238 19.9900 -2.1444 0.0000 0.0000 3.0656 -21.5397 -1.8655 0.7362 7.1250 -0.0000 -0.0000 4.0534 -31.9685 1.2954
-0.2603 17.9312 -30.1659 -1.4985 12.3922 2.7128 0.0000 0.0000 0.0000 -14.4743 -6.3260 -6.3415 1.7303 8.2802 23.5683 0.3228 6.0552 -14.6509 0.3118 -3.5898 -9.9253 0.0000 0.0000 0.0000 16.7179 -0.0132 -4.8391 -1.8574 -8.5625 24.4361 0.9913 -21.3547 -21.4564 -0.0516 1.4660 -4.0321 -1.4385 -2.1473 2.2310 5.9514 -2.8720 1.0462 7.0496 -1.4687 0.2084 1.9061 1.4911 -22.8411 -11.3653 5.2001 27.8013 -3.8986 0.8917 13.6711 0.0000 -0.0000 0.0000 -51.0014 3.8357 -21.5156 12.5487 -20.6224 -2.2919 -0.0000 -0.0000 0.7471 13.2993 2.3180 0.5477 -7.1250 0.0000 -0.0000 -10.6861 32.2370 3.3899 0.0000 -0.0000 0.0000 30.5500 -0.0551 -27.3957 -12.2048 20.1110 -2.1722 0.0000 0.0000 2.9540 -21.8344 -1.8280 0.7323 7.1250 -0.0000 -0.0000 3.8148 -31.9342 1.2220
